# xmcd
#
# Track frame offsets:
#	150
#	20137
#	42704
#	59038
#	78570
#	94114
#	120387
#	142652
#	165100
#	184112
#	198507
#	223097
#	243841
#
# Disc length: 3702 seconds
#
# Revision: 1
# Processed by: cddbd v1.5.2PL0 Copyright (c) Steve Scherf et al.
# Submitted via: audiograbber 1.83.01
#
DISCID=b30e740d
DTITLE=Los Reyes Del Ko - Hot Tin Roof
DYEAR=1900
DGENRE=Blues
TTITLE0=Cool, Cool Mama
TTITLE1=The Way You Make Me Feel
TTITLE2=Fucked Up Again
TTITLE3=I Can't Cry
TTITLE4=Ei Beat De Mi Corazon
TTITLE5=The Great Googa Mooga
TTITLE6=La Paloma
TTITLE7=Young Boy Blues
TTITLE8=The Hucklebuck
TTITLE9=Rollin' And Tumblin'
TTITLE10=That's Allright
TTITLE11=Herp Smoking
TTITLE12=I Can't Leave You Alone
EXTD=
EXTT0=
EXTT1=
EXTT2=
EXTT3=
EXTT4=
EXTT5=
EXTT6=
EXTT7=
EXTT8=
EXTT9=
EXTT10=
EXTT11=
EXTT12=
PLAYORDER=
